<svg width="22" height="18" viewBox="0 0 22 18" fill="none" xmlns="http://www.w3.org/2000/svg">
<path fill-rule="evenodd" clip-rule="evenodd" d="M10.9999 0.749695L18.2736 0.955348C19.5588 0.991686 20.6218 1.96734 20.7679 3.24474C21.0915 6.07235 21.0915 8.92764 20.7679 11.7552C20.6218 13.0326 19.5588 14.0083 18.2736 14.0446L12.7499 14.2008V16.25H15.9999C16.4142 16.25 16.7499 16.5858 16.7499 17C16.7499 17.4142 16.4142 17.75 15.9999 17.75H5.99994C5.58573 17.75 5.24994 17.4142 5.24994 17C5.24994 16.5858 5.58573 16.25 5.99994 16.25H9.24994V14.2008L3.72629 14.0446C2.44108 14.0083 1.37806 13.0326 1.2319 11.7552C0.908376 8.92764 0.908376 6.07235 1.2319 3.24474C1.37806 1.96734 2.44108 0.991686 3.7263 0.955348L10.9999 0.749695ZM10.9999 2.25029L3.76869 2.45475C3.22948 2.46999 2.7835 2.87932 2.72218 3.41525C2.41162 6.12956 2.41162 8.87043 2.72218 11.5847C2.7835 12.1207 3.22948 12.53 3.76869 12.5452L10.9999 12.7497L18.2312 12.5452C18.7704 12.53 19.2164 12.1207 19.2777 11.5847C19.5882 8.87043 19.5882 6.12956 19.2777 3.41525C19.2164 2.87933 18.7704 2.46999 18.2312 2.45475L10.9999 2.25029Z" fill="black"/>
</svg>
