<svg width="36" height="40" viewBox="0 0 36 40" fill="none" xmlns="http://www.w3.org/2000/svg">
  <g filter="url(#filter0_d_372_316)">
    <rect x="4" width="28" height="32" rx="5" fill="#FFF6C7"/>
  </g>
  <rect x="5" y="1" width="26" height="30" rx="4" stroke="#656063" stroke-width="2"/>
  <path d="M21.9998 29.149C18.1403 29.149 15 25.9755 15 22.0743C15 18.173 18.1403 15 21.9998 15C25.8597 15 29 18.1735 29 22.0747C29 25.9759 25.8597 29.149 21.9998 29.149ZM21.9998 16.655C19.0527 16.655 16.655 19.0862 16.655 22.0747C16.655 25.0632 19.0527 27.4944 21.9998 27.4944C24.9469 27.4944 27.345 25.0628 27.345 22.0747C27.345 19.0866 24.9469 16.655 21.9998 16.655Z" fill="#6ACC7A"/>
  <path d="M20.4594 24.7917L18.792 23.5881C18.4212 23.3208 18.3377 22.8036 18.6054 22.4329C18.8731 22.0622 19.3898 21.979 19.761 22.2463L20.8338 23.0208L24.1152 19.4676C24.4256 19.1324 24.9494 19.1105 25.2845 19.4212C25.6205 19.7315 25.6411 20.2549 25.3313 20.5905L21.5521 24.6828C21.3195 24.9816 20.7854 25.0246 20.4594 24.7917Z" fill="#6ACC7A"/>
  <path fill-rule="evenodd" clip-rule="evenodd" d="M9.93912 3.51227C11.4985 3.33478 13.073 3.33478 14.6324 3.51227L16.2277 3.69385C16.4562 3.71986 16.6602 3.84927 16.781 4.04493C16.9019 4.2406 16.9263 4.4809 16.8472 4.69686L14.6447 10.7134H17C17.2461 10.7134 17.4765 10.8341 17.6166 11.0364C17.7567 11.2386 17.7887 11.4967 17.7022 11.7271L17.5117 12.2343C16.1905 15.7533 14.3226 19.0419 11.9768 21.9789L11.5861 22.4681C11.3872 22.717 11.0528 22.8132 10.7521 22.7078C10.4514 22.6025 10.25 22.3186 10.25 22V14.8476H8.42862C8.0401 14.8476 7.7159 14.5509 7.68155 14.1639L7.55893 12.7821C7.35145 10.4442 7.35145 8.09245 7.55893 5.75452L7.68155 4.37274C7.71305 4.01788 7.98983 3.73414 8.3438 3.69385L9.93912 3.51227ZM14.4628 5.00265C13.0161 4.83799 11.5554 4.83799 10.1088 5.00265L9.12158 5.11501L9.05306 5.88711C8.85341 8.13682 8.85341 10.3998 9.05306 12.6495L9.11501 13.3476H11C11.4143 13.3476 11.75 13.6834 11.75 14.0976V19.8023C13.4521 17.46 14.8512 14.9102 15.9127 12.2134H13.5715C13.3265 12.2134 13.097 12.0938 12.9567 11.893C12.8164 11.6923 12.783 11.4356 12.8672 11.2056L15.1109 5.07642L14.4628 5.00265Z" fill="#656063"/>
  <rect x="19" y="8" width="7" height="1" rx="0.5" fill="#656063"/>
  <rect x="19" y="10" width="8" height="1" rx="0.5" fill="#656063"/>
  <rect x="19" y="6" width="9" height="1" rx="0.5" fill="#656063"/>
  <defs>
    <filter id="filter0_d_372_316" x="0" y="0" width="36" height="40" filterUnits="userSpaceOnUse" color-interpolation-filters="sRGB">
      <feFlood flood-opacity="0" result="BackgroundImageFix"/>
      <feColorMatrix in="SourceAlpha" type="matrix" values="0 0 0 0 0 0 0 0 0 0 0 0 0 0 0 0 0 0 127 0" result="hardAlpha"/>
      <feOffset dy="4"/>
      <feGaussianBlur stdDeviation="2"/>
      <feComposite in2="hardAlpha" operator="out"/>
      <feColorMatrix type="matrix" values="0 0 0 0 0 0 0 0 0 0 0 0 0 0 0 0 0 0 0.25 0"/>
      <feBlend mode="normal" in2="BackgroundImageFix" result="effect1_dropShadow_372_316"/>
      <feBlend mode="normal" in="SourceGraphic" in2="effect1_dropShadow_372_316" result="shape"/>
    </filter>
  </defs>
</svg>
