<?xml version="1.0" encoding="UTF-8"?>
<svg xmlns="http://www.w3.org/2000/svg" xmlns:xlink="http://www.w3.org/1999/xlink" width="256px" height="256px" viewBox="0 0 256 256" version="1.1">
<g id="surface1">
<path style=" stroke:none;fill-rule:nonzero;fill:rgb(100%,94.509804%,67.45098%);fill-opacity:0.678431;" d="M 31.132812 39.589844 L 0.746094 39.589844 L 0.746094 60.441406 L 31.132812 60.441406 Z M 31.132812 39.589844 "/>
<path style=" stroke:none;fill-rule:nonzero;fill:rgb(80.784314%,59.215686%,69.019608%);fill-opacity:1;" d="M 31.132812 209.886719 L 0.746094 209.886719 L 0.746094 230.738281 L 31.132812 230.738281 Z M 31.132812 209.886719 "/>
<path style=" stroke:none;fill-rule:nonzero;fill:rgb(96.078431%,80.392157%,66.666667%);fill-opacity:1;" d="M 31.132812 161.230469 L 0.746094 161.230469 L 0.746094 182.082031 L 31.132812 182.082031 Z M 31.132812 161.230469 "/>
<path style=" stroke:none;fill-rule:nonzero;fill:rgb(54.509804%,80.392157%,80.392157%);fill-opacity:1;" d="M 31.132812 185.558594 L 0.746094 185.558594 L 0.746094 206.410156 L 31.132812 206.410156 Z M 31.132812 185.558594 "/>
<path style=" stroke:none;fill-rule:nonzero;fill:rgb(73.72549%,80%,60.392157%);fill-opacity:1;" d="M 31.132812 136.902344 L 0.746094 136.902344 L 0.746094 157.753906 L 31.132812 157.753906 Z M 31.132812 136.902344 "/>
<path style=" stroke:none;fill-rule:nonzero;fill:rgb(91.764706%,56.470588%,47.843137%);fill-opacity:1;" d="M 31.132812 88.246094 L 0.746094 88.246094 L 0.746094 109.097656 L 31.132812 109.097656 Z M 31.132812 88.246094 "/>
<path style=" stroke:none;fill-rule:nonzero;fill:rgb(80.392157%,73.333333%,65.490196%);fill-opacity:1;" d="M 31.132812 112.574219 L 0.746094 112.574219 L 0.746094 133.425781 L 31.132812 133.425781 Z M 31.132812 112.574219 "/>
<path style=" stroke:none;fill-rule:nonzero;fill:rgb(65.098039%,86.27451%,93.72549%);fill-opacity:1;" d="M 31.132812 63.917969 L 0.746094 63.917969 L 0.746094 84.773438 L 31.132812 84.773438 Z M 31.132812 63.917969 "/>
<path style=" stroke:none;fill-rule:nonzero;fill:rgb(39.607843%,37.647059%,38.823529%);fill-opacity:1;" d="M 196.175781 80.644531 L 130.949219 80.644531 C 128.480469 80.644531 126.480469 78.8125 126.480469 76.554688 C 126.480469 74.296875 128.480469 72.464844 130.949219 72.464844 L 196.175781 72.464844 C 198.648438 72.464844 200.648438 74.296875 200.648438 76.554688 C 200.648438 78.8125 198.648438 80.644531 196.175781 80.644531 Z M 196.175781 80.644531 "/>
<path style=" stroke:none;fill-rule:nonzero;fill:rgb(39.607843%,37.647059%,38.823529%);fill-opacity:1;" d="M 176.25 99.082031 L 130.949219 99.082031 C 128.480469 99.082031 126.480469 97.25 126.480469 94.992188 C 126.480469 92.734375 128.480469 90.902344 130.949219 90.902344 L 176.246094 90.902344 C 178.714844 90.902344 180.714844 92.734375 180.714844 94.992188 C 180.714844 97.25 178.714844 99.082031 176.25 99.082031 Z M 176.25 99.082031 "/>
<path style=" stroke:none;fill-rule:nonzero;fill:rgb(39.607843%,37.647059%,38.823529%);fill-opacity:1;" d="M 195.503906 160.355469 L 126.207031 160.355469 C 123.742188 160.355469 121.738281 158.523438 121.738281 156.265625 C 121.738281 154.011719 123.742188 152.179688 126.207031 152.179688 L 195.503906 152.179688 C 197.96875 152.179688 199.972656 154.011719 199.972656 156.265625 C 199.972656 158.523438 197.96875 160.355469 195.503906 160.355469 Z M 195.503906 160.355469 "/>
<path style=" stroke:none;fill-rule:nonzero;fill:rgb(39.607843%,37.647059%,38.823529%);fill-opacity:1;" d="M 174.332031 180.066406 L 126.207031 180.066406 C 123.742188 180.066406 121.738281 178.234375 121.738281 175.976562 C 121.738281 173.722656 123.742188 171.890625 126.207031 171.890625 L 174.332031 171.890625 C 176.796875 171.890625 178.800781 173.722656 178.800781 175.976562 C 178.800781 178.234375 176.800781 180.066406 174.332031 180.066406 Z M 174.332031 180.066406 "/>
<path style=" stroke:none;fill-rule:nonzero;fill:rgb(39.607843%,37.647059%,38.823529%);fill-opacity:1;" d="M 240.820312 207.808594 C 235.964844 202.734375 228.511719 203.707031 221.90625 203.691406 L 221.5625 87.601562 C 221.558594 85.347656 219.558594 83.523438 217.09375 83.523438 C 217.089844 83.523438 217.085938 83.523438 217.082031 83.523438 C 214.613281 83.53125 212.617188 85.367188 212.625 87.625 L 212.96875 203.664062 L 94.34375 203.316406 C 91.828125 203.316406 89.742188 205.292969 89.863281 207.605469 C 90.78125 224.6875 88.511719 235.675781 82.921875 241.207031 C 77.921875 246.15625 70.351562 246.242188 63.535156 246.242188 C 48.5 246.242188 36.269531 234.636719 36.269531 220.375 L 36.269531 43.824219 C 36.269531 41.769531 38.148438 40.101562 40.449219 40.101562 C 80.910156 40.171875 157.847656 40.316406 161.476562 40.398438 C 163.96875 40.558594 166.238281 38.664062 166.238281 36.320312 C 166.238281 32.230469 163.210938 32.21875 156.578125 32.1875 C 153.261719 32.171875 148.519531 32.15625 142.828125 32.140625 C 131.453125 32.105469 116.289062 32.070312 101.125 32.039062 C 70.796875 31.976562 40.46875 31.925781 40.460938 31.925781 C 33.222656 31.925781 27.332031 37.261719 27.332031 43.824219 L 27.332031 220.375 C 27.332031 239.148438 43.574219 254.417969 63.539062 254.417969 C 66.941406 254.417969 201.492188 254.863281 202.289062 254.863281 C 202.300781 254.863281 202.304688 254.863281 202.304688 254.863281 C 225.570312 254.355469 240.78125 240.742188 244.039062 217.511719 C 244.527344 213.996094 243.355469 210.457031 240.820312 207.808594 C 238.351562 205.230469 243.355469 210.457031 240.820312 207.808594 C 235.964844 202.734375 243.355469 210.457031 240.820312 207.808594 C 235.964844 202.734375 243.355469 210.457031 240.820312 207.808594 C 235.964844 202.734375 243.355469 210.457031 240.820312 207.808594 Z M 235.171875 216.472656 C 233.273438 229.96875 226 246.167969 202.203125 246.691406 C 176.390625 246.648438 120.726562 246.535156 89.824219 246.414062 C 96.433594 239.601562 99.367188 228.429688 98.960938 211.507812 L 224.582031 211.894531 C 228.339844 211.894531 235.949219 210.875 235.171875 216.472656 C 233.273438 229.96875 235.335938 215.28125 235.171875 216.472656 Z M 235.171875 216.472656 "/>
<path style=" stroke:none;fill-rule:nonzero;fill:rgb(41.568627%,80%,47.843137%);fill-opacity:1;" d="M 217.445312 71.273438 C 196.601562 71.273438 179.640625 55.59375 179.640625 36.316406 C 179.640625 17.039062 196.601562 1.363281 217.445312 1.363281 C 238.292969 1.363281 255.253906 17.042969 255.253906 36.320312 C 255.253906 55.59375 238.292969 71.273438 217.445312 71.273438 Z M 217.445312 9.539062 C 201.53125 9.539062 188.582031 21.550781 188.582031 36.320312 C 188.582031 51.085938 201.53125 63.097656 217.445312 63.097656 C 233.363281 63.097656 246.316406 51.082031 246.316406 36.320312 C 246.316406 21.554688 233.363281 9.539062 217.445312 9.539062 Z M 217.445312 9.539062 "/>
<path style=" stroke:none;fill-rule:nonzero;fill:rgb(41.568627%,80%,47.843137%);fill-opacity:1;" d="M 209.128906 49.742188 L 200.121094 43.796875 C 198.121094 42.476562 197.667969 39.921875 199.113281 38.089844 C 200.558594 36.257812 203.351562 35.847656 205.355469 37.167969 L 211.148438 40.992188 L 228.871094 23.4375 C 230.546875 21.78125 233.375 21.671875 235.1875 23.207031 C 237 24.742188 237.113281 27.328125 235.4375 28.984375 L 215.027344 49.207031 C 213.773438 50.683594 210.886719 50.894531 209.128906 49.742188 Z M 209.128906 49.742188 "/>
<path style=" stroke:none;fill-rule:evenodd;fill:rgb(39.607843%,37.647059%,38.823529%);fill-opacity:1;" d="M 74.644531 139.976562 C 79.085938 139.511719 83.574219 139.511719 88.015625 139.976562 L 92.5625 140.449219 C 93.210938 140.515625 93.792969 140.851562 94.136719 141.363281 C 94.480469 141.875 94.550781 142.5 94.324219 143.0625 L 88.050781 158.746094 L 94.761719 158.746094 C 95.460938 158.746094 96.117188 159.058594 96.519531 159.585938 C 96.917969 160.113281 97.007812 160.785156 96.761719 161.386719 L 96.21875 162.710938 C 92.453125 171.882812 87.132812 180.453125 80.449219 188.109375 L 79.335938 189.382812 C 78.769531 190.035156 77.816406 190.285156 76.960938 190.007812 C 76.105469 189.734375 75.53125 188.996094 75.53125 188.164062 L 75.53125 169.519531 L 70.339844 169.519531 C 69.234375 169.519531 68.3125 168.746094 68.210938 167.738281 L 67.863281 164.136719 C 67.273438 158.042969 67.273438 151.914062 67.863281 145.820312 L 68.210938 142.21875 C 68.300781 141.292969 69.089844 140.554688 70.101562 140.449219 Z M 87.53125 143.859375 C 83.410156 143.429688 79.25 143.429688 75.128906 143.859375 L 72.316406 144.152344 L 72.121094 146.164062 C 71.550781 152.027344 71.550781 157.929688 72.121094 163.792969 L 72.296875 165.609375 L 77.667969 165.609375 C 78.847656 165.609375 79.804688 166.488281 79.804688 167.566406 L 79.804688 182.4375 C 84.652344 176.332031 88.640625 169.683594 91.664062 162.65625 L 84.992188 162.65625 C 84.296875 162.65625 83.640625 162.34375 83.242188 161.820312 C 82.84375 161.296875 82.746094 160.628906 82.988281 160.027344 L 89.378906 144.050781 Z M 87.53125 143.859375 "/>
<path style=" stroke:none;fill-rule:nonzero;fill:rgb(39.607843%,37.647059%,38.823529%);fill-opacity:1;" d="M 84.316406 61.601562 C 70.816406 72.144531 64.054688 81.25 64.054688 88.941406 C 64.054688 100.480469 73.679688 107.941406 84.316406 107.941406 C 94.949219 107.941406 104.574219 100.480469 104.574219 88.941406 C 104.574219 81.25 97.8125 72.144531 84.316406 61.601562 Z M 84.316406 103.308594 C 75.832031 103.308594 69.121094 97.351562 69.121094 88.941406 C 69.121094 83.519531 74.058594 76.335938 84.316406 67.765625 C 94.570312 76.335938 99.507812 83.496094 99.507812 88.941406 C 99.507812 97.351562 92.796875 103.308594 84.316406 103.308594 Z M 73.753906 89.40625 C 74.691406 89.40625 75.449219 90.007812 75.628906 90.84375 C 76.667969 95.984375 81.402344 97.746094 84.847656 97.492188 C 85.933594 97.445312 86.847656 98.234375 86.847656 99.230469 C 86.847656 100.15625 86.035156 100.921875 85.023438 100.96875 C 79.628906 101.269531 73.324219 98.441406 71.878906 91.421875 C 71.675781 90.378906 72.589844 89.40625 73.753906 89.40625 Z M 73.753906 89.40625 "/>
</g>
</svg>
