<svg width="20" height="20" viewBox="0 0 20 20" fill="none" xmlns="http://www.w3.org/2000/svg">
<path d="M17.5621 10.0974L19.0931 12.7494C19.4002 13.2813 19.5619 13.8848 19.562 14.4991C19.562 15.1134 19.4004 15.7168 19.0933 16.2489C18.7863 16.7809 18.3446 17.2228 17.8127 17.53C17.2808 17.8373 16.6773 17.9992 16.0631 17.9994H14.0001V19.9994L9.00005 16.4994L14.0001 12.9994V14.9994H16.0621C16.1423 14.9998 16.2215 14.9809 16.2929 14.9441C16.3643 14.9074 16.4257 14.8539 16.472 14.7883C16.5182 14.7227 16.5479 14.6469 16.5586 14.5673C16.5692 14.4878 16.5605 14.4068 16.5331 14.3314L16.4951 14.2494L14.9641 11.5974L17.5621 10.0974ZM5.73705 7.38335L6.26705 13.4634L4.53706 12.4634L3.50505 14.2494C3.46449 14.3186 3.44128 14.3967 3.4374 14.4769C3.43352 14.5571 3.44909 14.637 3.48278 14.7099C3.51647 14.7828 3.56728 14.8465 3.63088 14.8955C3.69448 14.9445 3.76899 14.9774 3.84805 14.9914L3.93805 14.9994H7.00005V17.9994H3.93805C3.32368 17.9993 2.72014 17.8376 2.18809 17.5304C1.65603 17.2232 1.21421 16.7814 0.907032 16.2493C0.599854 15.7172 0.43814 15.1137 0.438143 14.4993C0.438147 13.885 0.599869 13.2814 0.907055 12.7494L1.93805 10.9634L0.206055 9.96335L5.73605 7.38335H5.73705ZM11.7501 0.968352C12.2821 1.27535 12.7241 1.71735 13.0311 2.24935L14.0611 4.03535L15.7941 3.03535L15.2641 9.11535L9.73205 6.53535L11.4641 5.53535L10.4331 3.74935C10.3932 3.67966 10.3372 3.62062 10.2696 3.57726C10.2021 3.53391 10.1251 3.50752 10.0451 3.50035C9.96517 3.49318 9.88468 3.50544 9.81049 3.53608C9.73631 3.56673 9.67063 3.61485 9.61905 3.67635L9.56705 3.74935L8.03705 6.40135L5.43806 4.90135L6.96805 2.24935C7.19788 1.85119 7.50389 1.50221 7.86861 1.22233C8.23333 0.94246 8.64961 0.737182 9.09369 0.618224C9.53776 0.499267 10.0009 0.46896 10.4567 0.529036C10.9125 0.589112 11.352 0.738393 11.7501 0.968352Z" fill="black"/>
</svg>
