<svg width="24" height="24" viewBox="0 0 24 24" fill="none" xmlns="http://www.w3.org/2000/svg">
<path d="M19.0008 1.99951H9.00076C7.89776 1.99951 7.00076 2.89651 7.00076 3.99951V9.58551L2.29376 14.2925C2.15395 14.4324 2.05875 14.6105 2.02018 14.8045C1.98161 14.9984 2.00142 15.1995 2.07709 15.3822C2.15276 15.5649 2.2809 15.721 2.4453 15.8309C2.60971 15.9408 2.80301 15.9995 3.00076 15.9995V20.9995C3.00076 21.2647 3.10612 21.5191 3.29366 21.7066C3.48119 21.8942 3.73555 21.9995 4.00076 21.9995H20.0008C20.266 21.9995 20.5203 21.8942 20.7079 21.7066C20.8954 21.5191 21.0008 21.2647 21.0008 20.9995V3.99951C21.0008 2.89651 20.1038 1.99951 19.0008 1.99951ZM11.0008 19.9995H5.00076V14.4135L8.00076 11.4135L11.0008 14.4135V19.9995ZM19.0008 19.9995H13.0008V15.9995C13.1987 15.9999 13.3924 15.9416 13.5571 15.8318C13.7218 15.722 13.8502 15.5657 13.9259 15.3828C14.0017 15.1999 14.0214 14.9986 13.9825 14.8045C13.9437 14.6104 13.8481 14.4322 13.7078 14.2925L9.00076 9.58551V3.99951H19.0008V19.9995Z" fill="black"/>
<path d="M10.999 6H12.999V8H10.999V6ZM14.999 6H16.999V8H14.999V6ZM14.999 10.031H16.999V12H14.999V10.031ZM14.999 14H16.999V16H14.999V14ZM6.99902 15H8.99902V17H6.99902V15Z" fill="black"/>
</svg>
