<svg width="86" height="94" viewBox="0 0 86 94" fill="none" xmlns="http://www.w3.org/2000/svg">
<rect width="10.209" height="7.65676" transform="matrix(-1 0 0 1 10.4591 14.5372)" fill="#FFF1AC" fill-opacity="0.68"/>
<rect width="10.209" height="7.65676" transform="matrix(-1 0 0 1 10.4591 77.0677)" fill="#CE97B0"/>
<rect width="10.209" height="7.65676" transform="matrix(-1 0 0 1 10.4591 59.2021)" fill="#F5CDAA"/>
<rect width="10.209" height="7.65676" transform="matrix(-1 0 0 1 10.4591 68.1346)" fill="#8BCDCD"/>
<rect width="10.209" height="7.65676" transform="matrix(-1 0 0 1 10.4591 50.2689)" fill="#BCCC9A"/>
<rect width="10.209" height="7.65676" transform="matrix(-1 0 0 1 10.4591 32.4029)" fill="#EA907A"/>
<rect width="10.209" height="7.65676" transform="matrix(-1 0 0 1 10.4591 41.3361)" fill="#CDBBA7"/>
<rect width="10.209" height="7.65676" transform="matrix(-1 0 0 1 10.4591 23.4703)" fill="#A6DCEF"/>
<path d="M65.9034 29.6112H43.9904C43.1616 29.6112 42.489 28.9386 42.489 28.1098C42.489 27.2811 43.1616 26.6085 43.9904 26.6085H65.9034C66.7329 26.6085 67.4048 27.2811 67.4048 28.1098C67.4048 28.9386 66.7329 29.6112 65.9034 29.6112Z" fill="#656063"/>
<path d="M59.2089 36.3816H43.9904C43.1616 36.3816 42.489 35.7089 42.489 34.8802C42.489 34.0515 43.1616 33.3788 43.9904 33.3788H59.2081C60.0369 33.3788 60.7095 34.0515 60.7095 34.8802C60.7095 35.7089 60.0376 36.3816 59.2089 36.3816Z" fill="#656063"/>
<path d="M65.6768 58.8807H42.3983C41.5696 58.8807 40.897 58.2081 40.897 57.3793C40.897 56.5506 41.5696 55.878 42.3983 55.878H65.6768C66.5056 55.878 67.1782 56.5506 67.1782 57.3793C67.1782 58.2081 66.5056 58.8807 65.6768 58.8807Z" fill="#656063"/>
<path d="M58.5642 66.1183H42.3983C41.5696 66.1183 40.897 65.4457 40.897 64.617C40.897 63.7882 41.5696 63.1156 42.3983 63.1156H58.5642C59.3929 63.1156 60.0655 63.7882 60.0655 64.617C60.0655 65.4457 59.3937 66.1183 58.5642 66.1183Z" fill="#656063"/>
<path d="M80.9001 76.305C79.2697 74.4418 76.7661 74.7991 74.5464 74.7923L74.4315 32.1666C74.4293 31.3386 73.7582 30.669 72.9302 30.669C72.9287 30.669 72.9272 30.669 72.9257 30.669C72.0962 30.6713 71.4266 31.3454 71.4288 32.1741L71.5437 74.7826L31.6932 74.6557C30.8479 74.6557 30.1476 75.3816 30.1881 76.2306C30.4966 82.5018 29.7339 86.5367 27.8565 88.568C26.1772 90.3854 23.6332 90.4169 21.3444 90.4169C16.2931 90.4169 12.1838 86.1561 12.1838 80.9186V16.0916C12.1838 15.3379 12.8152 14.7254 13.5884 14.7254C27.1801 14.7501 53.0275 14.8042 54.2466 14.8342C55.0828 14.892 55.8455 14.1976 55.8455 13.3359C55.8455 11.8353 54.8291 11.83 52.6011 11.8187C51.4863 11.8135 49.8934 11.8075 47.9814 11.8015C44.1605 11.7887 39.0664 11.776 33.9715 11.7647C23.7833 11.7414 13.5944 11.7227 13.5921 11.7227C11.1607 11.7227 9.18188 13.6827 9.18188 16.0916V80.9186C9.18188 87.8121 14.6386 93.4196 21.3451 93.4196C22.4884 93.4196 67.6889 93.5833 67.9569 93.5833C67.9599 93.5833 67.9622 93.5833 67.9622 93.5833C75.7775 93.3956 80.8881 88.3969 81.9819 79.8677C82.1455 78.5765 81.7521 77.2778 80.9001 76.305C80.0714 75.3576 81.7521 77.2778 80.9001 76.305C79.2697 74.4418 81.7521 77.2778 80.9001 76.305C79.2697 74.4418 81.7521 77.2778 80.9001 76.305C79.2697 74.4418 81.7521 77.2778 80.9001 76.305ZM79.0024 79.4863C78.3658 84.4416 75.9216 90.3892 67.9277 90.5813C59.2566 90.5656 40.5572 90.525 30.1753 90.48C32.3958 87.9787 33.3815 83.877 33.2441 77.6637L75.445 77.8048C76.7076 77.8048 79.2636 77.4302 79.0024 79.4863C78.3658 84.4416 79.058 79.0479 79.0024 79.4863Z" fill="#656063"/>
<path d="M73.0485 26.171C66.0462 26.171 60.3485 20.4133 60.3485 13.3351C60.3485 6.25701 66.0462 0.500061 73.0485 0.500061C80.0515 0.500061 85.7492 6.25776 85.7492 13.3359C85.7492 20.414 80.0515 26.171 73.0485 26.171ZM73.0485 3.50277C67.7014 3.50277 63.3512 7.91375 63.3512 13.3359C63.3512 18.758 67.7014 23.169 73.0485 23.169C78.3956 23.169 82.7465 18.7573 82.7465 13.3359C82.7465 7.91451 78.3956 3.50277 73.0485 3.50277Z" fill="#6ACC7A"/>
<path d="M70.2537 18.2654L67.2284 16.0817C66.5558 15.5967 66.4042 14.6584 66.8899 13.9858C67.3756 13.3132 68.3131 13.1623 68.9865 13.6472L70.933 15.0525L76.8866 8.60568C77.4496 7.99763 78.4 7.95784 79.0081 8.5216C79.6176 9.08461 79.6551 10.0342 79.0929 10.643L72.2362 18.068C71.8143 18.61 70.8452 18.688 70.2537 18.2654Z" fill="#6ACC7A"/>
<path fill-rule="evenodd" clip-rule="evenodd" d="M25.0759 51.3971C26.5684 51.2272 28.0754 51.2272 29.5678 51.3971L31.0947 51.5709C31.3134 51.5957 31.5086 51.7196 31.6243 51.9069C31.7399 52.0941 31.7633 52.3241 31.6876 52.5308L29.5796 58.2893H31.8339C32.0694 58.2893 32.2899 58.4048 32.424 58.5983C32.5581 58.7919 32.5887 59.0389 32.5059 59.2594L32.3237 59.7449C31.0591 63.1129 29.2713 66.2604 27.0261 69.0714L26.6522 69.5396C26.4619 69.7779 26.1418 69.8699 25.854 69.769C25.5662 69.6682 25.3735 69.3965 25.3735 69.0916V62.246H23.6302C23.2584 62.246 22.9481 61.9621 22.9152 61.5917L22.7979 60.2692C22.5993 58.0315 22.5993 55.7807 22.7979 53.5431L22.9152 52.2206C22.9454 51.881 23.2103 51.6094 23.5491 51.5709L25.0759 51.3971ZM29.4055 52.8235C28.0209 52.6659 26.6229 52.6659 25.2383 52.8235L24.2935 52.931L24.2279 53.67C24.0368 55.8232 24.0368 57.9891 24.2279 60.1423L24.2872 60.8104H26.0913C26.4878 60.8104 26.8092 61.1318 26.8092 61.5282V66.9882C28.4382 64.7464 29.7772 62.3059 30.7933 59.7249H28.5524C28.318 59.7249 28.0983 59.6104 27.9641 59.4183C27.8298 59.2261 27.7978 58.9805 27.8784 58.7603L30.0258 52.8941L29.4055 52.8235Z" fill="#656063"/>
<g clip-path="url(#clip0_103_409)">
<path d="M28.3244 22.6196C23.7899 26.4905 21.5184 29.8339 21.5184 32.6584C21.5184 36.8952 24.7513 39.6346 28.3244 39.6346C31.8976 39.6346 35.1304 36.8952 35.1304 32.6584C35.1304 29.8339 32.8589 26.4905 28.3244 22.6196ZM28.3244 37.9331C25.4744 37.9331 23.2199 35.7467 23.2199 32.6584C23.2199 30.6677 24.8789 28.0303 28.3244 24.8826C31.77 28.0303 33.4289 30.6592 33.4289 32.6584C33.4289 35.7467 31.1745 37.9331 28.3244 37.9331ZM24.7768 32.8286C25.0916 32.8286 25.3468 33.0498 25.4064 33.3561C25.7552 35.2447 27.3461 35.8913 28.5031 35.7977C28.8689 35.7807 29.1752 36.0699 29.1752 36.4358C29.1752 36.7761 28.903 37.0568 28.5627 37.0738C26.7506 37.1844 24.6322 36.1465 24.1473 33.5687C24.0792 33.1859 24.3855 32.8286 24.7768 32.8286Z" fill="#656063"/>
</g>
<defs>
<clipPath id="clip0_103_409">
<rect width="20.418" height="20.418" fill="white" transform="translate(18.1151 20.9179)"/>
</clipPath>
</defs>
</svg>
